# xmcd
#
# Track frame offsets: 
#        150
#        13425
#        33484
#        55010
#        71186
#        91267
#        107599
#        120879
#        137160
#        152675
#        172696
#        192198
#
# Disc length: 2753 seconds
#
# Revision: 1
# Processed by: cddbd v1.5.2PL0 Copyright (c) Steve Scherf et al.
# Submitted via: ExactAudioCopyFreeDBPlugin 1.0
#
DISCID=960abf0c
DTITLE=Ken Whiteley - Ken Whiteley and the Beulah Band
DYEAR=2015
DGENRE=Blues
TTITLE0=The Moment We’ve Been Waiting For
TTITLE1=Beulah Land
TTITLE2=How Fast Flies Time
TTITLE3=Try Not To Fall
TTITLE4=The Lone Pilgrim
TTITLE5=Straight To You
TTITLE6=Feel Just Like Going On
TTITLE7=Friends All Over The Place
TTITLE8=Hands On That Guitar
TTITLE9=Indian Buffet
TTITLE10=Hackett's Cove
TTITLE11=Quite Early Morning
EXTD=
EXTT0=
EXTT1=
EXTT2=
EXTT3=
EXTT4=
EXTT5=
EXTT6=
EXTT7=
EXTT8=
EXTT9=
EXTT10=
EXTT11=
PLAYORDER=
